<svg width="11" height="10" viewBox="0 0 11 10" fill="none" xmlns="http://www.w3.org/2000/svg">
<path d="M1.22222 3.75L2.13889 0.9375H8.86111L9.77778 3.75M8.86111 6.875C8.618 6.875 8.38484 6.77623 8.21293 6.60041C8.04102 6.4246 7.94444 6.18614 7.94444 5.9375C7.94444 5.68886 8.04102 5.4504 8.21293 5.27459C8.38484 5.09877 8.618 5 8.86111 5C9.10423 5 9.33738 5.09877 9.50929 5.27459C9.6812 5.4504 9.77778 5.68886 9.77778 5.9375C9.77778 6.18614 9.6812 6.4246 9.50929 6.60041C9.33738 6.77623 9.10423 6.875 8.86111 6.875ZM2.13889 6.875C1.89577 6.875 1.66262 6.77623 1.49071 6.60041C1.3188 6.4246 1.22222 6.18614 1.22222 5.9375C1.22222 5.68886 1.3188 5.4504 1.49071 5.27459C1.66262 5.09877 1.89577 5 2.13889 5C2.382 5 2.61516 5.09877 2.78707 5.27459C2.95898 5.4504 3.05556 5.68886 3.05556 5.9375C3.05556 6.18614 2.95898 6.4246 2.78707 6.60041C2.61516 6.77623 2.382 6.875 2.13889 6.875ZM9.72889 0.625C9.60667 0.2625 9.26444 0 8.86111 0H2.13889C1.73556 0 1.39333 0.2625 1.27111 0.625L0 4.375V9.375C0 9.54076 0.0643847 9.69973 0.17899 9.81694C0.293596 9.93415 0.449034 10 0.611111 10H1.22222C1.3843 10 1.53974 9.93415 1.65434 9.81694C1.76895 9.69973 1.83333 9.54076 1.83333 9.375V8.75H9.16667V9.375C9.16667 9.54076 9.23105 9.69973 9.34566 9.81694C9.46026 9.93415 9.6157 10 9.77778 10H10.3889C10.551 10 10.7064 9.93415 10.821 9.81694C10.9356 9.69973 11 9.54076 11 9.375V4.375L9.72889 0.625Z" fill="white"/>
</svg>
