<svg width="17" height="17" viewBox="0 0 17 17" fill="none" xmlns="http://www.w3.org/2000/svg">
<path d="M6.375 12.75C5.98542 12.75 5.65203 12.6114 5.37483 12.3342C5.09764 12.057 4.95881 11.7234 4.95833 11.3333V2.83332C4.95833 2.44374 5.09717 2.11035 5.37483 1.83316C5.6525 1.55596 5.98589 1.41713 6.375 1.41666H12.75C13.1396 1.41666 13.4732 1.55549 13.7509 1.83316C14.0285 2.11082 14.1671 2.44421 14.1667 2.83332V11.3333C14.1667 11.7229 14.0281 12.0565 13.7509 12.3342C13.4737 12.6119 13.1401 12.7505 12.75 12.75H6.375ZM6.375 11.3333H12.75V2.83332H6.375V11.3333ZM3.54167 15.5833C3.15208 15.5833 2.81869 15.4447 2.5415 15.1675C2.26431 14.8903 2.12547 14.5567 2.125 14.1667V4.24999H3.54167V14.1667H11.3333V15.5833H3.54167Z" fill="white"/>
</svg>
