<svg width="32" height="22" viewBox="0 0 32 22" fill="none" xmlns="http://www.w3.org/2000/svg">
<path d="M0 18.5C0 19.4283 0.421427 20.3185 1.17157 20.9749C1.92172 21.6313 2.93913 22 4 22H28C29.0609 22 30.0783 21.6313 30.8284 20.9749C31.5786 20.3185 32 19.4283 32 18.5V8.875H0V18.5ZM4.71429 13.75C4.71429 13.2527 4.94005 12.7758 5.34191 12.4242C5.74378 12.0725 6.28882 11.875 6.85714 11.875H10.2857C10.854 11.875 11.3991 12.0725 11.8009 12.4242C12.2028 12.7758 12.4286 13.2527 12.4286 13.75V15C12.4286 15.4973 12.2028 15.9742 11.8009 16.3258C11.3991 16.6775 10.854 16.875 10.2857 16.875H6.85714C6.28882 16.875 5.74378 16.6775 5.34191 16.3258C4.94005 15.9742 4.71429 15.4973 4.71429 15V13.75ZM28 0H4C2.93913 0 1.92172 0.368749 1.17157 1.02513C0.421427 1.6815 0 2.57174 0 3.5V5.125H32V3.5C32 2.57174 31.5786 1.6815 30.8284 1.02513C30.0783 0.368749 29.0609 0 28 0Z" fill="#769EED"/>
</svg>
