<svg width="19" height="22" viewBox="0 0 19 22" fill="none" xmlns="http://www.w3.org/2000/svg">
<path d="M2.75201 2.7054C4.55085 0.969611 6.975 -0.00230852 9.49979 4.11767e-06C12.0285 4.11767e-06 14.4558 0.971374 16.2476 2.7054C17.87 4.27358 18.7152 6.02904 18.9386 7.85219C19.1609 9.65955 18.7636 11.4737 18.0059 13.175C16.502 16.5595 13.5128 19.6372 10.6455 21.6398C10.3113 21.874 9.91071 22 9.49979 22C9.08887 22 8.68824 21.874 8.35405 21.6398C5.48682 19.6372 2.49753 16.5584 0.992523 13.175C0.235989 11.4737 -0.160126 9.65955 0.0609612 7.85107C0.284352 6.02904 1.12955 4.27471 2.75201 2.7054ZM6.33317 8.74346C6.33317 7.92062 6.6668 7.13149 7.26065 6.54965C7.85451 5.96782 8.65995 5.64094 9.49979 5.64094C10.3396 5.64094 11.1451 5.96782 11.7389 6.54965C12.3328 7.13149 12.6664 7.92062 12.6664 8.74346C12.6664 9.5663 12.3328 10.3554 11.7389 10.9373C11.1451 11.5191 10.3396 11.846 9.49979 11.846C8.65995 11.846 7.85451 11.5191 7.26065 10.9373C6.6668 10.3554 6.33317 9.5663 6.33317 8.74346Z" fill="#2F2F2F"/>
<path d="M4.75021 8.41669L5.76807 5.60419H13.2324L14.2502 8.41669M13.2324 11.5417C12.9624 11.5417 12.7035 11.4429 12.5126 11.2671C12.3217 11.0913 12.2145 10.8528 12.2145 10.6042C12.2145 10.3555 12.3217 10.1171 12.5126 9.94127C12.7035 9.76546 12.9624 9.66669 13.2324 9.66669C13.5023 9.66669 13.7612 9.76546 13.9521 9.94127C14.143 10.1171 14.2502 10.3555 14.2502 10.6042C14.2502 10.8528 14.143 11.0913 13.9521 11.2671C13.7612 11.4429 13.5023 11.5417 13.2324 11.5417ZM5.76807 11.5417C5.49811 11.5417 5.23922 11.4429 5.04833 11.2671C4.85745 11.0913 4.75021 10.8528 4.75021 10.6042C4.75021 10.3555 4.85745 10.1171 5.04833 9.94127C5.23922 9.76546 5.49811 9.66669 5.76807 9.66669C6.03802 9.66669 6.29692 9.76546 6.4878 9.94127C6.67869 10.1171 6.78592 10.3555 6.78592 10.6042C6.78592 10.8528 6.67869 11.0913 6.4878 11.2671C6.29692 11.4429 6.03802 11.5417 5.76807 11.5417ZM14.1959 5.29169C14.0602 4.92919 13.6802 4.66669 13.2324 4.66669H5.76807C5.32021 4.66669 4.94021 4.92919 4.80449 5.29169L3.39307 9.04169V14.0417C3.39307 14.2074 3.46456 14.3664 3.59182 14.4836C3.71907 14.6008 3.89167 14.6667 4.07164 14.6667H4.75021C4.93018 14.6667 5.10277 14.6008 5.23003 14.4836C5.35729 14.3664 5.42878 14.2074 5.42878 14.0417V13.4167H13.5716V14.0417C13.5716 14.2074 13.6431 14.3664 13.7704 14.4836C13.8976 14.6008 14.0702 14.6667 14.2502 14.6667H14.9288C15.1087 14.6667 15.2813 14.6008 15.4086 14.4836C15.5359 14.3664 15.6074 14.2074 15.6074 14.0417V9.04169L14.1959 5.29169Z" fill="white"/>
</svg>
