<svg width="8" height="14" viewBox="0 0 8 14" fill="none" xmlns="http://www.w3.org/2000/svg">
<path d="M3.79956 0.100403V1.6004H4.19995C4.88923 1.60123 5.55045 1.87473 6.03784 2.36212C6.52524 2.84951 6.79873 3.51073 6.79956 4.20001V4.70001C6.79898 5.05606 6.72481 5.40814 6.58179 5.73419C6.45647 6.01988 6.27787 6.27725 6.0603 6.49982C6.41817 6.71864 6.71881 7.02028 6.93433 7.38165C7.17202 7.78028 7.29803 8.2359 7.29956 8.70001V9.20001C7.29873 9.88929 7.02524 10.5505 6.53784 11.0379C6.05045 11.5253 5.38923 11.7988 4.69995 11.7996H3.79956V13.2996H2.60034V11.7996H0.100342V1.6004H2.60034V0.100403H3.79956ZM1.29956 10.6004H4.69995L4.83862 10.5926C5.15884 10.5604 5.45964 10.4188 5.68921 10.1893C5.95167 9.9268 6.09994 9.57119 6.10034 9.20001V8.70001C6.09994 8.32883 5.95167 7.97322 5.68921 7.71075C5.45964 7.48119 5.15884 7.33962 4.83862 7.30743L4.69995 7.29962H1.29956V10.6004ZM1.29956 6.1004H4.19995L4.33862 6.09259C4.65884 6.0604 4.95964 5.91883 5.18921 5.68927C5.45167 5.4268 5.59994 5.07119 5.60034 4.70001V4.20001C5.59994 3.82883 5.45167 3.47322 5.18921 3.21075C4.95964 2.98119 4.65884 2.83962 4.33862 2.80743L4.19995 2.79962H1.29956V6.1004Z" fill="#2F2F2F" stroke="#2F2F2F" stroke-width="0.2"/>
</svg>
