<svg width="11" height="15" viewBox="0 0 11 15" fill="none" xmlns="http://www.w3.org/2000/svg">
<path d="M1.57143 14.25C1.13929 14.25 0.769476 14.1032 0.462 13.8097C0.154524 13.5162 0.000523809 13.163 0 12.75V4.5C0 4.0875 0.154 3.7345 0.462 3.441C0.77 3.1475 1.13981 3.0005 1.57143 3H3.14286V1.5C3.14286 1.0875 3.29686 0.7345 3.60486 0.441C3.91286 0.1475 4.28267 0.0005 4.71428 0H6.28571C6.71786 0 7.08793 0.147 7.39593 0.441C7.70393 0.735 7.85767 1.088 7.85714 1.5V3H9.42857C9.86071 3 10.2308 3.147 10.5388 3.441C10.8468 3.735 11.0005 4.088 11 4.5V12.75C11 13.1625 10.8463 13.5157 10.5388 13.8097C10.2313 14.1037 9.86124 14.2505 9.42857 14.25C9.42857 14.4625 9.35314 14.6407 9.20228 14.7847C9.05143 14.9287 8.86495 15.0005 8.64286 15C8.42076 14.9995 8.23428 14.9275 8.08343 14.784C7.93257 14.6405 7.85714 14.4625 7.85714 14.25H3.14286C3.14286 14.4625 3.06743 14.6407 2.91657 14.7847C2.76571 14.9287 2.57924 15.0005 2.35714 15C2.13505 14.9995 1.94857 14.9275 1.79771 14.784C1.64686 14.6405 1.57143 14.4625 1.57143 14.25ZM3.14286 12H4.71428V5.25H3.14286V12ZM6.28571 12H7.85714V5.25H6.28571V12ZM4.71428 3H6.28571V1.5H4.71428V3Z" fill="#2F2F2F"/>
</svg>
