<svg width="14" height="14" viewBox="0 0 14 14" fill="none" xmlns="http://www.w3.org/2000/svg">
<path d="M0.875 1.75C0.875 1.28587 1.05937 0.840752 1.38756 0.512563C1.71575 0.184375 2.16087 0 2.625 0L7.875 0C8.33913 0 8.78425 0.184375 9.11244 0.512563C9.44063 0.840752 9.625 1.28587 9.625 1.75V8.75C10.0891 8.75 10.5342 8.93437 10.8624 9.26256C11.1906 9.59075 11.375 10.0359 11.375 10.5V10.9375C11.375 11.0535 11.4211 11.1648 11.5031 11.2469C11.5852 11.3289 11.6965 11.375 11.8125 11.375C11.9285 11.375 12.0398 11.3289 12.1219 11.2469C12.2039 11.1648 12.25 11.0535 12.25 10.9375V7H11.8125C11.6965 7 11.5852 6.95391 11.5031 6.87186C11.4211 6.78981 11.375 6.67853 11.375 6.5625V3.82812C11.375 3.71209 11.4211 3.60081 11.5031 3.51877C11.5852 3.43672 11.6965 3.39062 11.8125 3.39062H13.1206C13.111 2.97412 13.0743 2.60838 12.9447 2.32138C12.8754 2.1545 12.7546 2.0141 12.6 1.92062C12.439 1.82437 12.194 1.75 11.8125 1.75C11.6965 1.75 11.5852 1.70391 11.5031 1.62186C11.4211 1.53981 11.375 1.42853 11.375 1.3125C11.375 1.19647 11.4211 1.08519 11.5031 1.00314C11.5852 0.921094 11.6965 0.875 11.8125 0.875C12.306 0.873833 12.7178 0.971833 13.048 1.169C13.3831 1.3685 13.6027 1.65112 13.7428 1.96263C14.0009 2.53575 14 3.2445 14 3.7835V6.5625C14 6.67853 13.9539 6.78981 13.8719 6.87186C13.7898 6.95391 13.6785 7 13.5625 7H13.125V10.9375C13.125 11.2856 12.9867 11.6194 12.7406 11.8656C12.4944 12.1117 12.1606 12.25 11.8125 12.25C11.4644 12.25 11.1306 12.1117 10.8844 11.8656C10.6383 11.6194 10.5 11.2856 10.5 10.9375V10.5C10.5 10.2679 10.4078 10.0454 10.2437 9.88128C10.0796 9.71719 9.85706 9.625 9.625 9.625V13.125H10.0625C10.1785 13.125 10.2898 13.1711 10.3719 13.2531C10.4539 13.3352 10.5 13.4465 10.5 13.5625C10.5 13.6785 10.4539 13.7898 10.3719 13.8719C10.2898 13.9539 10.1785 14 10.0625 14H0.4375C0.321468 14 0.210188 13.9539 0.128141 13.8719C0.0460936 13.7898 0 13.6785 0 13.5625C0 13.4465 0.0460936 13.3352 0.128141 13.2531C0.210188 13.1711 0.321468 13.125 0.4375 13.125H0.875V1.75ZM3.0625 1.75C2.94647 1.75 2.83519 1.79609 2.75314 1.87814C2.67109 1.96019 2.625 2.07147 2.625 2.1875V6.5625C2.625 6.67853 2.67109 6.78981 2.75314 6.87186C2.83519 6.95391 2.94647 7 3.0625 7H7.4375C7.55353 7 7.66481 6.95391 7.74686 6.87186C7.82891 6.78981 7.875 6.67853 7.875 6.5625V2.1875C7.875 2.07147 7.82891 1.96019 7.74686 1.87814C7.66481 1.79609 7.55353 1.75 7.4375 1.75H3.0625Z" fill="#2F2F2F"/>
</svg>
