<svg width="15" height="15" viewBox="0 0 15 15" fill="none" xmlns="http://www.w3.org/2000/svg">
<path d="M3.675 11.25H5.1L5.85 9.15H9.14999L9.89999 11.25H11.325L8.25 3H6.75L3.675 11.25ZM6.2625 7.95L7.4625 4.5375H7.5375L8.73749 7.95H6.2625ZM7.5 15C6.4625 15 5.4875 14.803 4.575 14.409C3.6625 14.015 2.86875 13.4807 2.19375 12.8062C1.51875 12.1317 0.9845 11.338 0.591001 10.425C0.197501 9.512 0.000500949 8.537 9.49366e-07 7.5C-0.00049905 6.463 0.196501 5.488 0.591001 4.575C0.9855 3.662 1.51975 2.86825 2.19375 2.19375C2.86775 1.51925 3.6615 0.985 4.575 0.591C5.4885 0.197 6.4635 0 7.5 0C8.5365 0 9.51149 0.197 10.425 0.591C11.3385 0.985 12.1322 1.51925 12.8062 2.19375C13.4802 2.86825 14.0147 3.662 14.4097 4.575C14.8047 5.488 15.0015 6.463 15 7.5C14.9985 8.537 14.8015 9.512 14.409 10.425C14.0165 11.338 13.4822 12.1317 12.8062 12.8062C12.1302 13.4807 11.3365 14.0152 10.425 14.4097C9.51349 14.8042 8.5385 15.001 7.5 15Z" fill="#2F2F2F"/>
</svg>
