<svg width="12" height="15" viewBox="0 0 12 15" fill="none" xmlns="http://www.w3.org/2000/svg">
<path d="M3.75 13.0774H8.25V14.6155H3.75C1.68 14.6155 0 12.8928 0 10.7703V3.84901H1.5V10.7703C1.5 12.0469 2.505 13.0774 3.75 13.0774ZM4.815 2.62625C5.4 2.0264 5.4 1.04973 4.815 0.449885C4.23 -0.149962 3.2775 -0.149962 2.6925 0.449885C2.1075 1.04973 2.1075 2.0264 2.6925 2.62625C3.2775 3.23379 4.2225 3.23379 4.815 2.62625ZM5.625 5.38708C5.625 4.54114 4.95 3.84901 4.125 3.84901H3.75C2.925 3.84901 2.25 4.54114 2.25 5.38708V10.0013C2.25 11.2779 3.255 12.3084 4.5 12.3084H8.3025L10.9275 15L12 13.9003L8.1975 10.0013H5.625V5.38708Z" fill="#2F2F2F"/>
</svg>
